<?xml version="1.0" encoding="utf-8"?>
<!-- Generator: Adobe Illustrator 24.2.1, SVG Export Plug-In . SVG Version: 6.00 Build 0)  -->
<svg version="1.1" id="Layer_2" xmlns="http://www.w3.org/2000/svg" xmlns:xlink="http://www.w3.org/1999/xlink" x="0px" y="0px"
	 viewBox="0 0 9.07 9.07" style="enable-background:new 0 0 9.07 9.07;" xml:space="preserve">
<style type="text/css">
	.st0{fill:#FFFFFF;}
</style>
<g>
	<g>
		<path class="st0" d="M8.12,5.48H7.74V3.59c0-1.77-1.44-3.21-3.21-3.21S1.32,1.82,1.32,3.59v1.89H0.94V3.59
			C0.94,1.61,2.55,0,4.53,0c1.98,0,3.59,1.61,3.59,3.59V5.48z"/>
	</g>
	<g>
		<path class="st0" d="M8.5,5.85H7.74V3.59H8.5c0.31,0,0.57,0.25,0.57,0.57v1.13C9.07,5.6,8.81,5.85,8.5,5.85z M8.12,5.48H8.5
			c0.1,0,0.19-0.08,0.19-0.19V4.15c0-0.1-0.08-0.19-0.19-0.19H8.12V5.48z"/>
	</g>
	<g>
		<path class="st0" d="M1.32,5.85H0.57C0.25,5.85,0,5.6,0,5.29V4.15c0-0.31,0.25-0.57,0.57-0.57h0.76V5.85z M0.57,3.97
			c-0.1,0-0.19,0.08-0.19,0.19v1.13c0,0.1,0.08,0.19,0.19,0.19h0.38V3.97H0.57z"/>
	</g>
	<g>
		<path class="st0" d="M4.53,9.07c-1.56,0-2.83-1.27-2.83-2.83V4.15h1.89c0.94,0,1.7-0.76,1.7-1.7h0.38c0,0.88,0.66,1.6,1.53,1.69
			l0.17,0.02v2.07C7.37,7.79,6.09,9.07,4.53,9.07z M2.08,4.53v1.7c0,1.35,1.1,2.46,2.46,2.46s2.46-1.1,2.46-2.46V4.5
			C6.31,4.37,5.75,3.93,5.48,3.32C5.15,4.04,4.42,4.53,3.59,4.53H2.08z"/>
	</g>
	<g>
		<path class="st0" d="M6.61,7.55H5.1V7.18h1.51c0.62,0,1.13-0.51,1.13-1.13V5.67h0.38v0.38C8.12,6.88,7.44,7.55,6.61,7.55z"/>
	</g>
	<g>
		<path class="st0" d="M4.53,8.12c-0.42,0-0.76-0.34-0.76-0.76s0.34-0.76,0.76-0.76s0.76,0.34,0.76,0.76S4.95,8.12,4.53,8.12z
			 M4.53,6.99c-0.21,0-0.38,0.17-0.38,0.38c0,0.21,0.17,0.38,0.38,0.38c0.21,0,0.38-0.17,0.38-0.38C4.91,7.16,4.74,6.99,4.53,6.99z"
			/>
	</g>
</g>
</svg>
