<?xml version="1.0" encoding="utf-8"?>
<!-- Generator: Adobe Illustrator 27.2.0, SVG Export Plug-In . SVG Version: 6.00 Build 0)  -->
<svg version="1.1" id="Слой_1" xmlns="http://www.w3.org/2000/svg" xmlns:xlink="http://www.w3.org/1999/xlink" x="0px" y="0px"
	 viewBox="0 0 26 26" style="enable-background:new 0 0 26 26;" xml:space="preserve">
<style type="text/css">
	.st0{fill:#FFFFFF;}
</style>
<path class="st0" d="M25.5,15.5c0-0.1,0-0.1,0-0.2l0,0L20.6,2.8l0,0c0,0,0-0.1-0.1-0.1c0,0,0-0.1-0.1-0.1l0,0c0,0-0.1,0-0.1-0.1
	c0,0,0,0-0.1,0l0,0l0,0l0,0h-0.1c-0.1,0-0.1,0-0.2,0l0,0l-5.2,0.6c-0.4-1.1-1.2-1.6-2-1.6c-1,0-1.8,0.7-2,1.7L5.6,3.8H5.5H5.4l0,0
	l0,0c0,0-0.1,0-0.1,0.1c0,0-0.1,0-0.1,0.1l0,0L5.1,4.2c0,0,0,0-0.1,0.1L0.2,16.7l0,0v0.1c0,0.1,0,0.1,0,0.2l0,0
	c0,3.3,2.5,6.2,5.6,6.2s5.6-2.8,5.6-6.2l0,0c0-0.1,0-0.1,0-0.2v-0.1l0,0L6.8,5.4L11,4.9c0.3,0.7,1.1,1.1,1.8,1.1c1,0,1.7-0.7,2-1.6
	l3.8-0.4l-4.4,11.4l0,0c0,0,0,0.1,0,0.2v0.1l0,0c0,3.3,2.5,6.2,5.6,6.2s5.6-2.8,5.6-6.2l0,0C25.5,15.7,25.5,15.7,25.5,15.5z
	 M23.5,14.9h-7.3l3.6-9.5L23.5,14.9z M5.6,6.8l3.6,9.3H2L5.6,6.8z M5.6,21.5c-2,0-3.6-1.5-4-3.6h8C9.2,19.9,7.7,21.5,5.6,21.5z
	 M12.7,4.4c-0.3,0-0.5-0.2-0.5-0.6s0.2-0.6,0.5-0.6s0.5,0.2,0.5,0.6S13.1,4.4,12.7,4.4z M19.9,20.2c-2,0-3.6-1.5-4-3.6h8
	C23.5,18.7,21.8,20.2,19.9,20.2z"/>
</svg>
