<?xml version="1.0" encoding="utf-8"?>
<!-- Generator: Adobe Illustrator 24.2.1, SVG Export Plug-In . SVG Version: 6.00 Build 0)  -->
<svg version="1.1" id="Layer_2" xmlns="http://www.w3.org/2000/svg" xmlns:xlink="http://www.w3.org/1999/xlink" x="0px" y="0px"
	 viewBox="0 0 75.72 103.27" style="enable-background:new 0 0 75.72 103.27;" xml:space="preserve">
<style type="text/css">
	.st0{fill:#FFFFFF;}
</style>
<g>
	<path class="st0" d="M37.86,59.15c-5.41,0-9.81,4.4-9.81,9.81v24.5c0,5.41,4.4,9.81,9.81,9.81c5.41,0,9.81-4.4,9.81-9.81v-24.5
		C47.67,63.55,43.27,59.15,37.86,59.15z M43.86,93.46c0,3.31-2.69,6-6,6c-3.31,0-6-2.69-6-6v-24.5c0-3.31,2.69-6,6-6
		c3.31,0,6,2.69,6,6V93.46z"/>
	<path class="st0" d="M41.94,30.32h-8.16c-4.3,0-7.8,3.5-7.8,7.8c0,4.3,3.5,7.8,7.8,7.8h8.16c4.3,0,7.8-3.5,7.8-7.8
		C49.74,33.82,46.24,30.32,41.94,30.32z M41.94,42.1h-8.16c-2.2,0-3.99-1.79-3.99-3.99c0-2.2,1.79-3.99,3.99-3.99h8.16
		c2.2,0,3.99,1.79,3.99,3.99C45.93,40.32,44.14,42.1,41.94,42.1z"/>
	<path class="st0" d="M75.7,20.75c-0.13-0.94-0.94-1.65-1.88-1.65c-0.09,0-0.17,0.01-0.26,0.02l-14.57,1.95l-2.98-5.75
		C53.02,7.71,45.83,0,37.86,0C29.89,0,22.7,7.71,19.7,15.34l-2.97,5.73L2.16,19.12C2.07,19.11,1.99,19.1,1.9,19.1
		c-0.95,0-1.76,0.71-1.88,1.65c-0.14,1.04,0.59,2,1.64,2.14l13.21,1.77l-2.09,4.03l-0.08,0.03c-2.12,0.73-7.83,2.71-9.41,3.25
		c-0.93,0.32-1.46,1.28-1.24,2.24C6.9,54.83,13.65,69.43,13.94,70.04c0.31,0.67,0.99,1.1,1.73,1.1h4.22v10.07
		c0,1.05,0.85,1.91,1.91,1.91s1.91-0.85,1.91-1.91V59.15l0.07-0.06c3.91-3.41,8.92-5.28,14.09-5.28c5.17,0,10.18,1.88,14.09,5.28
		l0.07,0.06v22.06c0,1.05,0.85,1.91,1.91,1.91c1.05,0,1.91-0.85,1.91-1.91V71.14h4.22c0.74,0,1.41-0.43,1.73-1.1
		c0.29-0.61,7.04-15.21,11.89-35.83c0.23-0.96-0.31-1.92-1.24-2.24c-1.57-0.54-7.29-2.52-9.41-3.25l-0.08-0.03l-2.09-4.03
		l13.21-1.77C75.11,22.76,75.84,21.8,75.7,20.75z M23.99,15.04C26.7,9.45,32.04,3.81,37.86,3.81c5.81,0,11.15,5.64,13.86,11.22
		l0.09,0.19l-13.96,6.84L23.9,15.23L23.99,15.04z M60.98,32.05c0.08,0.03,5.31,1.84,8.4,2.91l0.18,0.06l-0.05,0.19
		c-0.42,1.7-0.87,3.46-1.36,5.22l-0.04,0.16h-7.19c-1.05,0-1.91,0.85-1.91,1.91c0,1.05,0.85,1.91,1.91,1.91h6.11l-0.08,0.27
		c-0.42,1.43-0.86,2.85-1.3,4.24l-0.05,0.15h-4.68c-1.05,0-1.91,0.85-1.91,1.91c0,1.05,0.85,1.91,1.91,1.91h3.43l-0.1,0.28
		c-2.32,6.81-4.37,11.73-5.38,14.06l-0.06,0.13h-2.98l0-8.71c0.09-0.62-0.12-1.24-0.57-1.67C50.53,52.47,44.35,50,37.86,50
		c-6.49,0-12.68,2.47-17.4,6.95c-0.45,0.43-0.66,1.05-0.57,1.7v8.68H16.9l-0.06-0.13c-1.02-2.33-3.07-7.26-5.38-14.06l-0.1-0.28
		h3.43c1.05,0,1.91-0.85,1.91-1.91c0-1.05-0.85-1.91-1.91-1.91h-4.68l-0.05-0.15c-0.43-1.37-0.87-2.79-1.3-4.24L8.69,44.4h6.11
		c1.05,0,1.91-0.85,1.91-1.91c0-1.05-0.85-1.91-1.91-1.91H7.6l-0.04-0.16c-0.48-1.77-0.94-3.52-1.36-5.22l-0.05-0.19l0.18-0.06
		c3.1-1.07,8.33-2.88,8.4-2.91c0.46-0.16,0.84-0.49,1.07-0.92l6.46-12.46l14.75,7.23c0.26,0.13,0.54,0.19,0.82,0.19
		c0.29,0,0.58-0.07,0.85-0.2l0.11-0.05l0.01,0.01l14.64-7.17l6.46,12.46C60.13,31.56,60.51,31.89,60.98,32.05z"/>
</g>
</svg>
