<?xml version="1.0" encoding="utf-8"?>
<!-- Generator: Adobe Illustrator 24.2.1, SVG Export Plug-In . SVG Version: 6.00 Build 0)  -->
<svg version="1.1" id="Capa_1" xmlns="http://www.w3.org/2000/svg" xmlns:xlink="http://www.w3.org/1999/xlink" x="0px" y="0px"
	 viewBox="0 0 512 512" style="enable-background:new 0 0 512 512;" xml:space="preserve">
<style type="text/css">
	.st0{fill:#FFFFFF;}
</style>
<path class="st0" d="M164.96,331h0.02c0.02,0,0.04,0,0.06,0H437c6.7,0,12.58-4.44,14.42-10.88l60-210
	c1.29-4.53,0.39-9.39-2.45-13.15C506.14,93.21,501.71,91,497,91H130.37l-10.72-48.25C118.12,35.88,112.03,31,105,31H15
	C6.71,31,0,37.71,0,46s6.71,15,15,15h77.97c1.9,8.55,51.31,230.92,54.16,243.71C131.18,311.64,120,327.54,120,346
	c0,24.81,20.19,45,45,45h272c8.29,0,15-6.71,15-15s-6.71-15-15-15H165c-8.27,0-15-6.73-15-15C150,337.74,156.71,331.02,164.96,331z
	 M477.11,121l-51.43,180H177.03l-40-180H477.11z"/>
<path class="st0" d="M150,436c0,24.81,20.19,45,45,45s45-20.19,45-45s-20.19-45-45-45S150,411.19,150,436z M195,421
	c8.27,0,15,6.73,15,15s-6.73,15-15,15s-15-6.73-15-15S186.73,421,195,421z"/>
<path class="st0" d="M362,436c0,24.81,20.19,45,45,45s45-20.19,45-45s-20.19-45-45-45S362,411.19,362,436z M407,421
	c8.27,0,15,6.73,15,15s-6.73,15-15,15s-15-6.73-15-15S398.73,421,407,421z"/>
</svg>
